HIERARCHY
ROOT reference
{
  OFFSET -65.3212 -1.93545 -120.338
  CHANNELS 6 Xposition Yposition Zposition Zrotation Xrotation Yrotation
  JOINT Hips
  {
    OFFSET 0 78.7191 0
    CHANNELS 3 Zrotation Xrotation Yrotation
    JOINT Chest
    {
      OFFSET 0 8.7983 -4.7612
      CHANNELS 3 Zrotation Xrotation Yrotation
      JOINT Chest2
      {
        OFFSET 0 8.0291 0.4195
        CHANNELS 3 Zrotation Xrotation Yrotation
        JOINT Chest3
        {
          OFFSET 0 9.9351 -2.2114
          CHANNELS 3 Zrotation Xrotation Yrotation
          JOINT Neck
          {
            OFFSET 0 22.3885 -0.4656
            CHANNELS 3 Zrotation Xrotation Yrotation
            JOINT Head
            {
              OFFSET -0.0001 12.643 3.4389
              CHANNELS 3 Zrotation Xrotation Yrotation
              End Site
              {
                OFFSET 0.0001 17.6655 0.5274
              }
            }
          }
          JOINT LeftCollar
          {
            OFFSET 2.2603 21.606 7.4023
            CHANNELS 3 Zrotation Xrotation Yrotation
            JOINT LeftShoulder
            {
              OFFSET 13.5163 -1.1332 -5.0146
              CHANNELS 3 Zrotation Xrotation Yrotation
              JOINT LeftElbow
              {
                OFFSET -0.0995 -28.05 -0.2431
                CHANNELS 3 Zrotation Xrotation Yrotation
                JOINT LeftWrist
                {
                  OFFSET 0.0679 -23.3996 -0.1402
                  CHANNELS 3 Zrotation Xrotation Yrotation
                  JOINT LeftFinger1
                  {
                    OFFSET 0.7932 -9.069 2.5189
                    CHANNELS 3 Zrotation Xrotation Yrotation
                    JOINT LeftFinger11
                    {
                      OFFSET -0.8272 -3.3923 0.5977
                      CHANNELS 3 Zrotation Xrotation Yrotation
                      JOINT LeftFinger12
                      {
                        OFFSET -0.5649 -2.3158 0.4082
                        CHANNELS 3 Zrotation Xrotation Yrotation
                        End Site
                        {
                          OFFSET -0.4919 -1.6479 0.2673
                        }
                      }
                    }
                  }
                  JOINT LeftFinger2
                  {
                    OFFSET 0.9159 -9.2044 0.2193
                    CHANNELS 3 Zrotation Xrotation Yrotation
                    JOINT LeftFinger21
                    {
                      OFFSET 0.0117 -4.1944 -0.0248
                      CHANNELS 3 Zrotation Xrotation Yrotation
                      JOINT LeftFinger22
                      {
                        OFFSET 0.0071 -2.3249 -0.0142
                        CHANNELS 3 Zrotation Xrotation Yrotation
                        End Site
                        {
                          OFFSET -0.1475 -2.0882 0.0028
                        }
                      }
                    }
                  }
                  JOINT LeftFinger3
                  {
                    OFFSET 0.6113 -8.7231 -2.0637
                    CHANNELS 3 Zrotation Xrotation Yrotation
                    JOINT LeftFinger31
                    {
                      OFFSET -0.1927 -3.8059 -0.2383
                      CHANNELS 3 Zrotation Xrotation Yrotation
                      JOINT LeftFinger32
                      {
                        OFFSET -0.1091 -2.1688 -0.1362
                        CHANNELS 3 Zrotation Xrotation Yrotation
                        End Site
                        {
                          OFFSET -0.2358 -1.9176 -0.0906
                        }
                      }
                    }
                  }
                  JOINT LeftFinger4
                  {
                    OFFSET -0.6151 -8.0947 -3.5641
                    CHANNELS 3 Zrotation Xrotation Yrotation
                    JOINT LeftFinger41
                    {
                      OFFSET -0.4882 -2.341 -0.6462
                      CHANNELS 3 Zrotation Xrotation Yrotation
                      JOINT LeftFinger42
                      {
                        OFFSET -0.3575 -1.7167 -0.4742
                        CHANNELS 3 Zrotation Xrotation Yrotation
                        End Site
                        {
                          OFFSET -0.4187 -1.5237 -0.3496
                        }
                      }
                    }
                  }
                  JOINT LeftFinger0
                  {
                    OFFSET -1.42 -1.8761 1.4223
                    CHANNELS 3 Zrotation Xrotation Yrotation
                    JOINT LeftFinger01
                    {
                      OFFSET -1.1471 -3.4929 2.6334
                      CHANNELS 3 Zrotation Xrotation Yrotation
                      JOINT LeftFinger02
                      {
                        OFFSET -0.823 -2.3 1.6571
                        CHANNELS 3 Zrotation Xrotation Yrotation
                        End Site
                        {
                          OFFSET -0.5822 -1.6914 1.1582
                        }
                      }
                    }
                  }
                }
              }
            }
          }
          JOINT RightCollar
          {
            OFFSET -2.2603 21.606 7.4023
            CHANNELS 3 Zrotation Xrotation Yrotation
            JOINT RightShoulder
            {
              OFFSET -13.5187 -1.1334 -5.0155
              CHANNELS 3 Zrotation Xrotation Yrotation
              JOINT RightElbow
              {
                OFFSET 0.0994 -28.0499 -0.2431
                CHANNELS 3 Zrotation Xrotation Yrotation
                JOINT RightWrist
                {
                  OFFSET -0.0679 -23.3996 -0.1402
                  CHANNELS 3 Zrotation Xrotation Yrotation
                  JOINT RightFinger1
                  {
                    OFFSET -0.7932 -9.0691 2.5189
                    CHANNELS 3 Zrotation Xrotation Yrotation
                    JOINT RightFinger11
                    {
                      OFFSET 0.8272 -3.3923 0.5977
                      CHANNELS 3 Zrotation Xrotation Yrotation
                      JOINT RightFinger12
                      {
                        OFFSET 0.565 -2.3158 0.4082
                        CHANNELS 3 Zrotation Xrotation Yrotation
                        End Site
                        {
                          OFFSET 0.4919 -1.6479 0.2673
                        }
                      }
                    }
                  }
                  JOINT RightFinger2
                  {
                    OFFSET -0.916 -9.2044 0.2193
                    CHANNELS 3 Zrotation Xrotation Yrotation
                    JOINT RightFinger21
                    {
                      OFFSET -0.0117 -4.1944 -0.0248
                      CHANNELS 3 Zrotation Xrotation Yrotation
                      JOINT RightFinger22
                      {
                        OFFSET -0.0071 -2.3249 -0.0142
                        CHANNELS 3 Zrotation Xrotation Yrotation
                        End Site
                        {
                          OFFSET 0.1475 -2.0882 0.0028
                        }
                      }
                    }
                  }
                  JOINT RightFinger3
                  {
                    OFFSET -0.6113 -8.7231 -2.0637
                    CHANNELS 3 Zrotation Xrotation Yrotation
                    JOINT RightFinger31
                    {
                      OFFSET 0.1927 -3.8059 -0.2383
                      CHANNELS 3 Zrotation Xrotation Yrotation
                      JOINT RightFinger32
                      {
                        OFFSET 0.1091 -2.1688 -0.1362
                        CHANNELS 3 Zrotation Xrotation Yrotation
                        End Site
                        {
                          OFFSET 0.2358 -1.9176 -0.0906
                        }
                      }
                    }
                  }
                  JOINT RightFinger4
                  {
                    OFFSET 0.6151 -8.0947 -3.564
                    CHANNELS 3 Zrotation Xrotation Yrotation
                    JOINT RightFinger41
                    {
                      OFFSET 0.4882 -2.341 -0.6462
                      CHANNELS 3 Zrotation Xrotation Yrotation
                      JOINT RightFinger42
                      {
                        OFFSET 0.3574 -1.7166 -0.4742
                        CHANNELS 3 Zrotation Xrotation Yrotation
                        End Site
                        {
                          OFFSET 0.4187 -1.5237 -0.3496
                        }
                      }
                    }
                  }
                  JOINT RightFinger0
                  {
                    OFFSET 1.4199 -1.8761 1.4221
                    CHANNELS 3 Zrotation Xrotation Yrotation
                    JOINT RightFinger01
                    {
                      OFFSET 1.1472 -3.4929 2.6336
                      CHANNELS 3 Zrotation Xrotation Yrotation
                      JOINT RightFinger02
                      {
                        OFFSET 0.8229 -2.3 1.6571
                        CHANNELS 3 Zrotation Xrotation Yrotation
                        End Site
                        {
                          OFFSET 0.5822 -1.6914 1.1582
                        }
                      }
                    }
                  }
                }
              }
            }
          }
        }
      }
    }
    JOINT RightHip
    {
      OFFSET -9.412 3.9771 -0.7758
      CHANNELS 3 Zrotation Xrotation Yrotation
      JOINT RightKnee
      {
        OFFSET -0.7531 -40.938 0
        CHANNELS 3 Zrotation Xrotation Yrotation
        JOINT RightAnkle
        {
          OFFSET 0 -40.1986 0
          CHANNELS 3 Zrotation Xrotation Yrotation
          JOINT RightToe
          {
            OFFSET 0 -4.4182 9.239
            CHANNELS 3 Zrotation Xrotation Yrotation
            End Site
            {
              OFFSET 0 0 6.1981
            }
          }
        }
      }
    }
    JOINT LeftHip
    {
      OFFSET 9.4119 3.9773 -0.7758
      CHANNELS 3 Zrotation Xrotation Yrotation
      JOINT LeftKnee
      {
        OFFSET 0.7532 -40.9383 0
        CHANNELS 3 Zrotation Xrotation Yrotation
        JOINT LeftAnkle
        {
          OFFSET 0 -40.1986 0
          CHANNELS 3 Zrotation Xrotation Yrotation
          JOINT LeftToe
          {
            OFFSET 0 -4.4182 9.239
            CHANNELS 3 Zrotation Xrotation Yrotation
            End Site
            {
              OFFSET 0 0 6.1981
            }
          }
        }
      }
    }
  }
}
MOTION
Frames:	5
Frame Time:	0.0333333
-7.30845 -1.4348 -2.23842 0 0 -0 3.81018 -4.67292 -3.55563 -2.05988 0.358281 -0.570849 -4.11622 0.73683 -1.12847 -4.11623 0.736831 -1.12847 3.54277 -0.0609168 -11.0289 -2.38751 2.32487 -13.3078 3.14511 0.360743 -9.10588 1.27715 7.54492 28.3082 -151.13 -65.7355 -110.372 10.9556 -11.8715 44.8141 22.5374 -13.1075 3.82301 -0.168795 -2.22034 -0.890405 4.78063 -2.95262 0.379449 29.9147 -16.415 7.31446 -0.36981 -2.06323 0.400394 4.76844 -2.94941 0.590872 30.3561 -15.1061 9.51858 -0.370856 -2.27285 0.767623 4.63052 -3.13818 0.737595 33.202 -8.71673 11.8129 -0.0708277 -2.03064 1.73323 4.64242 -3.08519 0.891338 -1.77597 -2.37558 0.455746 -1.23473 -0.601603 0.234458 -1.77608 -2.37525 0.455951 2.28424 0.0619322 10.4508 0.49536 10.2428 -25.2889 4.50195 -29.8679 -10.3577 -4.0366 -6.29592 6.36741 5.32543 1.81348 -0.170141 5.324 1.81294 -0.170165 5.32282 1.81304 -0.169957 5.32258 1.81353 0.042331 5.32328 1.81397 0.0427238 5.32331 1.8142 0.0424467 5.23671 2.02814 0.202877 5.23857 2.02954 0.203099 5.23894 2.0294 0.203163 5.24638 1.97519 0.355794 5.24874 1.97629 0.355871 5.24814 1.97609 0.356011 -1.16952 2.64229 0.857592 -1.16996 2.64218 0.857869 -1.1697 2.64199 0.857689 -12.7178 -7.3482 -3.25205 0.734285 12.0415 -0.123352 10.3365 -0.581225 -6.02709 -0.376215 -2.64397 0.142882 -9.46692 9.75267 -5.47578 0.115875 1.59575 0.498055 5.66799 -6.45976 10.6901 0.011179 -0.103457 0.000238253 
-7.30979 -1.43846 -2.20984 0 0 -0 3.79863 -4.68324 -3.55633 -2.05463 0.333668 -0.585619 -4.10584 0.688091 -1.15892 -4.10584 0.688089 -1.15892 3.55446 0.0372789 -10.9986 -2.38865 2.2183 -13.2693 3.1768 0.35597 -9.14043 1.2371 7.5054 28.3242 -151.263 -65.7429 -110.508 10.9199 -11.8573 44.8463 22.5374 -13.1075 3.82302 -0.168814 -2.22033 -0.890401 4.78063 -2.95262 0.379458 29.9147 -16.415 7.31446 -0.369898 -2.06321 0.400397 4.76843 -2.94939 0.590864 30.3561 -15.1061 9.51857 -0.370797 -2.27286 0.767629 4.63051 -3.13819 0.737583 33.202 -8.71671 11.8129 -0.0710256 -2.03061 1.73325 4.64242 -3.08519 0.891358 -1.77599 -2.37559 0.455736 -1.23472 -0.601627 0.234468 -1.7761 -2.37524 0.455955 2.35094 0.0616722 10.4366 0.37154 10.1888 -25.267 4.53311 -29.8867 -10.3229 -4.04508 -6.23168 6.36662 5.32543 1.81348 -0.170145 5.32401 1.81294 -0.170158 5.32282 1.81304 -0.169958 5.32259 1.81354 0.0423429 5.32327 1.81397 0.0427233 5.3233 1.81418 0.0424559 5.23669 2.02814 0.202891 5.23856 2.02953 0.203109 5.2389 2.02939 0.203184 5.2464 1.97519 0.355802 5.24873 1.97629 0.355874 5.24813 1.97607 0.356009 -1.16951 2.64229 0.857564 -1.16996 2.64218 0.857876 -1.1697 2.64199 0.857684 -12.7129 -7.35419 -3.24385 0.744048 12.1153 -0.14477 10.3344 -0.636404 -6.01165 -0.3762 -2.64397 0.142889 -9.45657 9.75078 -5.40085 0.115043 1.66248 0.497663 5.68706 -6.57604 10.6256 0.00848366 -0.0927766 0.000244167 
-7.31103 -1.44234 -2.19102 0 0 -0 3.78629 -4.68832 -3.53963 -2.05169 0.312023 -0.604291 -4.10005 0.645465 -1.19705 -4.10007 0.645466 -1.19705 3.58576 0.141829 -10.9843 -2.39613 2.08678 -13.2528 3.21392 0.351657 -9.17115 1.17878 7.44797 28.3344 -151.411 -65.7592 -110.66 10.8727 -11.8541 44.8258 22.5374 -13.1075 3.82304 -0.168793 -2.22032 -0.890385 4.78064 -2.95263 0.379451 29.9147 -16.415 7.31447 -0.369914 -2.06319 0.400398 4.76843 -2.94942 0.590864 30.3561 -15.1061 9.51858 -0.370946 -2.27281 0.767637 4.63051 -3.13819 0.737603 33.202 -8.71673 11.8129 -0.0710106 -2.0306 1.73326 4.64242 -3.08517 0.891342 -1.77598 -2.3756 0.455735 -1.23471 -0.601632 0.234481 -1.7761 -2.37522 0.455944 2.42544 0.062198 10.4154 0.23114 10.1184 -25.2426 4.56515 -29.9109 -10.2859 -4.04088 -6.15642 6.33448 5.32542 1.81347 -0.170145 5.32402 1.81295 -0.170155 5.32282 1.81303 -0.169953 5.32259 1.81354 0.0423615 5.32324 1.81395 0.0427172 5.32333 1.8142 0.0424571 5.2367 2.02814 0.202905 5.23854 2.02955 0.203116 5.23891 2.02938 0.20317 5.24639 1.9752 0.35582 5.24872 1.97627 0.355877 5.24812 1.97607 0.356014 -1.16954 2.64228 0.857557 -1.16998 2.64218 0.857874 -1.16971 2.64198 0.857691 -12.7069 -7.3591 -3.22299 0.753771 12.1768 -0.166236 10.3353 -0.684064 -6.01155 -0.376214 -2.64397 0.142897 -9.44403 9.72551 -5.30938 0.11305 1.75361 0.493382 5.71576 -6.71395 10.5317 0.00580642 -0.0821114 0.00023469 
-7.31177 -1.44737 -2.17003 0 0 -0 3.77448 -4.70771 -3.52308 -2.05134 0.288749 -0.620916 -4.09948 0.599521 -1.23112 -4.09949 0.599521 -1.23112 3.61885 0.209204 -10.9951 -2.41293 2.02982 -13.2721 3.24477 0.349965 -9.18264 1.134 7.42134 28.3381 -151.496 -65.7823 -110.749 10.8033 -11.838 44.7792 22.5374 -13.1075 3.82304 -0.168786 -2.22033 -0.890372 4.78062 -2.95263 0.379453 29.9147 -16.415 7.31447 -0.369831 -2.06321 0.400402 4.76845 -2.94941 0.590869 30.3561 -15.1061 9.51858 -0.370732 -2.27286 0.76765 4.63051 -3.13817 0.73759 33.202 -8.71672 11.8129 -0.0710193 -2.03059 1.73329 4.64244 -3.08518 0.891344 -1.77598 -2.37559 0.455746 -1.23471 -0.601607 0.234488 -1.7761 -2.37526 0.45596 2.48766 0.0624783 10.4048 0.133506 10.0928 -25.2438 4.57344 -29.9029 -10.2608 -4.0347 -6.12935 6.29578 5.32541 1.81346 -0.17014 5.324 1.81294 -0.17015 5.32282 1.81304 -0.169945 5.32256 1.81354 0.042394 5.32329 1.81397 0.0427233 5.32333 1.81418 0.0424615 5.23669 2.02814 0.202916 5.23855 2.02954 0.20312 5.23891 2.02939 0.203179 5.24639 1.9752 0.355838 5.24873 1.97628 0.355881 5.24814 1.97607 0.356036 -1.16953 2.64227 0.85748 -1.16999 2.64218 0.857883 -1.16973 2.64199 0.857709 -12.7097 -7.36407 -3.22727 0.772897 12.267 -0.183534 10.329 -0.743549 -5.99542 -0.376229 -2.64397 0.142917 -9.43926 9.7114 -5.31508 0.117797 1.85346 0.51858 5.70626 -6.78069 10.5044 0.00679648 -0.112078 0.000250799 
-7.31093 -1.45352 -2.15783 0 0 -0 3.7661 -4.72638 -3.5045 -2.05325 0.265504 -0.635967 -4.10349 0.553603 -1.26204 -4.10349 0.553604 -1.26204 3.65598 0.246831 -11.0228 -2.43579 2.01022 -13.3127 3.27091 0.349842 -9.18337 1.08644 7.40149 28.3346 -151.556 -65.8034 -110.814 10.73 -11.8003 44.7033 22.5374 -13.1074 3.82309 -0.168881 -2.22031 -0.890378 4.78065 -2.95262 0.379484 29.9147 -16.415 7.31445 -0.369844 -2.06319 0.400411 4.76845 -2.94941 0.59087 30.3561 -15.1061 9.51858 -0.370837 -2.27282 0.767654 4.63051 -3.13817 0.737602 33.202 -8.71671 11.8129 -0.0708762 -2.03061 1.73328 4.64243 -3.08519 0.891339 -1.77598 -2.37558 0.455788 -1.23472 -0.601592 0.234481 -1.7761 -2.37524 0.455998 2.54032 0.0626777 10.3975 0.0601402 10.0703 -25.2503 4.57188 -29.8889 -10.2485 -4.02679 -6.1299 6.23415 5.32541 1.81346 -0.170147 5.32398 1.81293 -0.170128 5.32281 1.81302 -0.169952 5.32254 1.81356 0.0424547 5.32326 1.81396 0.0427538 5.32332 1.81415 0.0424638 5.23667 2.02815 0.202958 5.23854 2.02954 0.203126 5.23892 2.02937 0.203181 5.24635 1.97518 0.355876 5.24872 1.97626 0.355907 5.24811 1.97604 0.35604 -1.16953 2.64227 0.857384 -1.16999 2.64217 0.857909 -1.16971 2.64196 0.8577 -12.72 -7.37284 -3.24677 0.796146 12.3529 -0.194551 10.3195 -0.793971 -5.97476 -0.376257 -2.64394 0.142948 -9.43573 9.70773 -5.33757 0.120605 1.91726 0.53352 5.68929 -6.79778 10.4983 0.015962 -0.211032 0.000261998 
